<?xml version="1.0" encoding="UTF-8" standalone="no"?>
<svg
   xmlns:dc="http://purl.org/dc/elements/1.1/"
   xmlns:cc="http://creativecommons.org/ns#"
   xmlns:rdf="http://www.w3.org/1999/02/22-rdf-syntax-ns#"
   xmlns:svg="http://www.w3.org/2000/svg"
   xmlns="http://www.w3.org/2000/svg"
   xmlns:sodipodi="http://sodipodi.sourceforge.net/DTD/sodipodi-0.dtd"
   xmlns:inkscape="http://www.inkscape.org/namespaces/inkscape"
   width="153.82716"
   height="36.947369"
   viewBox="0 0 153.82716 36.947369"
   version="1.1"
   class="headerLogo"
   id="svg5419"
   sodipodi:docname="floorRentlogo.svg"
   inkscape:version="0.92.1 r15371">
  <metadata
     id="metadata5425">
    <rdf:RDF>
      <cc:Work
         rdf:about="">
        <dc:format>image/svg+xml</dc:format>
        <dc:type
           rdf:resource="http://purl.org/dc/dcmitype/StillImage" />
        <dc:title></dc:title>
      </cc:Work>
    </rdf:RDF>
  </metadata>
  <defs
     id="defs5423" />
  <sodipodi:namedview
     pagecolor="#014896"
     bordercolor="#666666"
     borderopacity="1"
     objecttolerance="10"
     gridtolerance="10"
     guidetolerance="10"
     inkscape:pageopacity="0"
     inkscape:pageshadow="2"
     inkscape:window-width="3000"
     inkscape:window-height="1875"
     id="namedview5421"
     showgrid="false"
     fit-margin-top="0"
     fit-margin-left="0"
     fit-margin-right="0"
     fit-margin-bottom="0"
     inkscape:zoom="15.833333"
     inkscape:cx="89.721899"
     inkscape:cy="4.421053"
     inkscape:window-x="-13"
     inkscape:window-y="-13"
     inkscape:window-maximized="1"
     inkscape:current-layer="g5417" />
  <g
     id="g5417"
     style="fill:#ffffff;fill-rule:nonzero"
     transform="translate(-0.27810147,2.8421052)">
    <polygon
       points="14.964746,13.581898 5.3348936,13.581898 5.3348936,23.083012 0.27810147,23.083012 0.27810147,0.08690671 16.446285,0.08690671 16.446285,4.3382651 5.3348936,4.3382651 5.3348936,9.6525368 14.964746,9.6525368 "
       id="polygon5394" />
    <path
       d="m 33.045041,5.9809493 c 5.24946,0 8.631457,3.478036 8.631457,8.7923077 0,5.28216 -3.381703,8.760491 -8.631457,8.760491 -5.21676,0 -8.598756,-3.478331 -8.598756,-8.760491 0,-5.3142717 3.381996,-8.7923077 8.598756,-8.7923077 z m 0,14.1065797 c 3.124222,0 4.058396,-2.673192 4.058396,-5.314272 0,-2.672897 -0.933879,-5.3460884 -4.058396,-5.3460884 -3.092111,0 -4.02599,2.6734864 -4.02599,5.3460884 0,2.64108 0.934173,5.314272 4.02599,5.314272 z"
       id="path5396"
       inkscape:connector-curvature="0" />
    <path
       d="m 61.135352,6.4316858 h 4.347987 v 3.0921113 h 0.06481 c 0.83725,-2.0934207 3.091816,-3.5425532 5.313977,-3.5425532 0.321996,0 0.708216,0.064517 0.99869,0.160851 v 4.2513581 c -0.419214,-0.09663 -1.095613,-0.161145 -1.642684,-0.161145 -3.349001,0 -4.509132,2.415712 -4.509132,5.346383 v 7.504321 H 61.13535 V 6.4316858 Z"
       id="path5398"
       inkscape:connector-curvature="0" />
    <path
       d="m 73.338527,0.08690671 h 12.399378 c 4.122619,0 6.731293,2.86674299 6.731293,6.34477909 0,2.7058919 -1.095025,4.7347952 -3.639182,5.7653032 v 0.06452 c 2.480229,0.643993 3.18874,3.059705 3.349886,5.378199 0.09633,1.449428 0.06481,4.15473 0.96599,5.443307 h -5.056203 c -0.612471,-1.449428 -0.54766,-3.671588 -0.805434,-5.507235 -0.354108,-2.415417 -1.288281,-3.47833 -3.833027,-3.47833 h -5.056204 v 8.985859 H 73.338822 V 0.08690671 Z M 78.395024,10.489787 h 5.539935 c 2.254272,0 3.478331,-0.9662845 3.478331,-3.285368 0,-2.2218658 -1.223765,-3.187856 -3.478331,-3.187856 h -5.539935 z"
       id="path5400"
       inkscape:connector-curvature="0" />
    <path
       d="m 98.463404,15.868282 c 0.129035,2.898559 1.545466,4.219247 4.090216,4.219247 1.83505,0 3.31718,-1.127431 3.60707,-2.157938 h 4.0251 c -1.28739,3.929361 -4.0251,5.604157 -7.79332,5.604157 -5.249753,0 -8.502716,-3.607365 -8.502716,-8.760491 0,-4.9919804 3.445925,-8.7923077 8.502716,-8.7923077 5.66809,0 8.40609,4.7666117 8.08321,9.8873327 z m 7.438626,-2.898855 c -0.41833,-2.318789 -1.41643,-3.5422584 -3.63859,-3.5422584 -2.898857,0 -3.736108,2.2545664 -3.800036,3.5425534 h 7.438626 z"
       id="path5402"
       inkscape:connector-curvature="0" />
    <path
       d="m 111.76661,6.4316858 h 4.34769 v 2.3190834 h 0.0966 c 1.15984,-1.8677577 3.15634,-2.7698199 5.08891,-2.7698199 4.86294,0 6.087,2.737414 6.087,6.8600327 v 10.24203 h -4.57365 v -9.40478 c 0,-2.737414 -0.80514,-4.0902124 -2.93096,-4.0902124 -2.47935,0 -3.54167,1.3849104 -3.54167,4.7663174 v 8.72838 h -4.57395 z"
       id="path5404"
       inkscape:connector-curvature="0" />
    <path
       d="m 135.24733,6.4316858 h 3.34959 v 3.0597054 h -3.34959 v 8.2452368 c 0,1.546056 0.38622,1.931981 1.93228,1.931981 0.48314,0 0.93388,-0.03182 1.41761,-0.12874 v 3.575254 c -0.77333,0.128739 -1.77172,0.161145 -2.67349,0.161145 -2.80193,0 -5.24857,-0.644288 -5.24857,-3.961473 V 9.4913912 h -2.77041 V 6.4316858 h 2.77041 V 1.4397054 h 4.57247 v 4.9919804 z"
       id="path5406"
       inkscape:connector-curvature="0" />
    <rect
       style="fill:#ffffff;stroke-width:1.15714443"
       id="rect5439"
       width="4.9894733"
       height="36.947369"
       x="17.43158"
       y="-2.8421052" />
    <rect
       style="fill:#ffffff;stroke-width:1.1268723"
       id="rect5441"
       width="136.48421"
       height="5.0526314"
       x="17.621052"
       y="29.052631" />
    <rect
       style="fill:#ffffff"
       id="rect5443"
       width="3.9789474"
       height="0.063157894"
       x="149.6842"
       y="32.210526" />
    <path
       d="m 51.499439,5.8762321 c 5.24946,0 8.631457,3.478036 8.631457,8.7923079 0,5.28216 -3.381703,8.760491 -8.631457,8.760491 -5.21676,0 -8.598756,-3.478331 -8.598756,-8.760491 0,-5.3142719 3.381996,-8.7923079 8.598756,-8.7923079 z m 0,14.1065799 c 3.124222,0 4.058396,-2.673192 4.058396,-5.314272 0,-2.672897 -0.933879,-5.3460886 -4.058396,-5.3460886 -3.092111,0 -4.02599,2.6734866 -4.02599,5.3460886 0,2.64108 0.934173,5.314272 4.02599,5.314272 z"
       id="path5396-5"
       inkscape:connector-curvature="0" />
    <polygon
       id="polygon5460"
       points="14.964746,13.581898 5.3348936,13.581898 5.3348936,23.083012 0.27810147,23.083012 0.27810147,0.08690671 16.446285,0.08690671 16.446285,4.3382651 5.3348936,4.3382651 5.3348936,9.6525368 14.964746,9.6525368 " />
    <path
       inkscape:connector-curvature="0"
       id="path5462"
       d="m 33.045041,5.9809493 c 5.24946,0 8.631457,3.478036 8.631457,8.7923077 0,5.28216 -3.381703,8.760491 -8.631457,8.760491 -5.21676,0 -8.598756,-3.478331 -8.598756,-8.760491 0,-5.3142717 3.381996,-8.7923077 8.598756,-8.7923077 z m 0,14.1065797 c 3.124222,0 4.058396,-2.673192 4.058396,-5.314272 0,-2.672897 -0.933879,-5.3460884 -4.058396,-5.3460884 -3.092111,0 -4.02599,2.6734864 -4.02599,5.3460884 0,2.64108 0.934173,5.314272 4.02599,5.314272 z" />
    <path
       inkscape:connector-curvature="0"
       id="path5464"
       d="m 61.135352,6.4316858 h 4.347987 v 3.0921113 h 0.06481 c 0.83725,-2.0934207 3.091816,-3.5425532 5.313977,-3.5425532 0.321996,0 0.708216,0.064517 0.99869,0.160851 v 4.2513581 c -0.419214,-0.09663 -1.095613,-0.161145 -1.642684,-0.161145 -3.349001,0 -4.509132,2.415712 -4.509132,5.346383 v 7.504321 H 61.13535 V 6.4316858 Z" />
    <path
       inkscape:connector-curvature="0"
       id="path5466"
       d="m 73.338527,0.08690671 h 12.399378 c 4.122619,0 6.731293,2.86674299 6.731293,6.34477909 0,2.7058919 -1.095025,4.7347952 -3.639182,5.7653032 v 0.06452 c 2.480229,0.643993 3.18874,3.059705 3.349886,5.378199 0.09633,1.449428 0.06481,4.15473 0.96599,5.443307 h -5.056203 c -0.612471,-1.449428 -0.54766,-3.671588 -0.805434,-5.507235 -0.354108,-2.415417 -1.288281,-3.47833 -3.833027,-3.47833 h -5.056204 v 8.985859 H 73.338822 V 0.08690671 Z M 78.395024,10.489787 h 5.539935 c 2.254272,0 3.478331,-0.9662845 3.478331,-3.285368 0,-2.2218658 -1.223765,-3.187856 -3.478331,-3.187856 h -5.539935 z" />
    <path
       inkscape:connector-curvature="0"
       id="path5468"
       d="m 98.463404,15.868282 c 0.129035,2.898559 1.545466,4.219247 4.090216,4.219247 1.83505,0 3.31718,-1.127431 3.60707,-2.157938 h 4.0251 c -1.28739,3.929361 -4.0251,5.604157 -7.79332,5.604157 -5.249753,0 -8.502716,-3.607365 -8.502716,-8.760491 0,-4.9919804 3.445925,-8.7923077 8.502716,-8.7923077 5.66809,0 8.40609,4.7666117 8.08321,9.8873327 z m 7.438626,-2.898855 c -0.41833,-2.318789 -1.41643,-3.5422584 -3.63859,-3.5422584 -2.898857,0 -3.736108,2.2545664 -3.800036,3.5425534 h 7.438626 z" />
    <path
       inkscape:connector-curvature="0"
       id="path5470"
       d="m 111.76661,6.4316858 h 4.34769 v 2.3190834 h 0.0966 c 1.15984,-1.8677577 3.15634,-2.7698199 5.08891,-2.7698199 4.86294,0 6.087,2.737414 6.087,6.8600327 v 10.24203 h -4.57365 v -9.40478 c 0,-2.737414 -0.80514,-4.0902124 -2.93096,-4.0902124 -2.47935,0 -3.54167,1.3849104 -3.54167,4.7663174 v 8.72838 h -4.57395 z" />
    <path
       inkscape:connector-curvature="0"
       id="path5472"
       d="m 135.24733,6.4316858 h 3.34959 v 3.0597054 h -3.34959 v 8.2452368 c 0,1.546056 0.38622,1.931981 1.93228,1.931981 0.48314,0 0.93388,-0.03182 1.41761,-0.12874 v 3.575254 c -0.77333,0.128739 -1.77172,0.161145 -2.67349,0.161145 -2.80193,0 -5.24857,-0.644288 -5.24857,-3.961473 V 9.4913912 h -2.77041 V 6.4316858 h 2.77041 V 1.4397054 h 4.57247 v 4.9919804 z" />
    <rect
       y="-2.8421052"
       x="17.43158"
       height="36.947369"
       width="4.9894733"
       id="rect5474"
       style="fill:#ffffff;stroke-width:1.15714443" />
    <rect
       y="29.052631"
       x="17.621052"
       height="5.0526314"
       width="136.48421"
       id="rect5476"
       style="fill:#ffffff;stroke-width:1.1268723" />
    <rect
       y="32.210526"
       x="149.6842"
       height="0.063157894"
       width="3.9789474"
       id="rect5478"
       style="fill:#ffffff" />
    <path
       inkscape:connector-curvature="0"
       id="path5480"
       d="m 51.499439,5.8762321 c 5.24946,0 8.631457,3.478036 8.631457,8.7923079 0,5.28216 -3.381703,8.760491 -8.631457,8.760491 -5.21676,0 -8.598756,-3.478331 -8.598756,-8.760491 0,-5.3142719 3.381996,-8.7923079 8.598756,-8.7923079 z m 0,14.1065799 c 3.124222,0 4.058396,-2.673192 4.058396,-5.314272 0,-2.672897 -0.933879,-5.3460886 -4.058396,-5.3460886 -3.092111,0 -4.02599,2.6734866 -4.02599,5.3460886 0,2.64108 0.934173,5.314272 4.02599,5.314272 z" />
  </g>
</svg>
